<?xml version="1.0" standalone="no"?>
<!DOCTYPE svg PUBLIC "-//W3C//DTD SVG 20010904//EN"
 "http://www.w3.org/TR/2001/REC-SVG-20010904/DTD/svg10.dtd">
<svg version="1.0" xmlns="http://www.w3.org/2000/svg"
 width="300.000000pt" height="168.000000pt" viewBox="0 0 300.000000 168.000000"
 preserveAspectRatio="xMidYMid meet">
<metadata>
Created by potrace 1.10, written by Peter Selinger 2001-2011
</metadata>
<g transform="translate(0.000000,168.000000) scale(0.100000,-0.100000)"
fill="#000000" stroke="none">
<path d="M2000 979 c0 -5 5 -9 10 -9 6 0 10 -49 10 -127 0 -91 3 -124 11 -116
8 8 19 7 39 -4 88 -43 169 81 95 144 -22 20 -36 24 -62 20 l-33 -6 0 52 0 52
-35 2 c-19 1 -35 -3 -35 -8z m128 -121 c16 -16 15 -90 -1 -112 -7 -10 -22 -17
-33 -14 -15 3 -20 13 -22 57 -2 29 -1 60 2 67 7 17 38 18 54 2z"/>
<path d="M300 969 c0 -5 7 -9 15 -9 26 0 33 -33 28 -128 -5 -83 -8 -95 -27
-102 -25 -10 -24 -11 37 -13 48 -2 63 7 27 16 -18 5 -20 14 -20 96 0 50 2 91
4 91 2 0 25 -42 51 -92 26 -51 51 -96 54 -101 4 -4 25 37 46 90 47 121 60 137
51 63 -3 -30 -6 -76 -6 -102 0 -36 -4 -48 -15 -48 -8 0 -15 -3 -15 -7 0 -5 30
-6 67 -4 51 2 62 5 46 12 -22 8 -23 14 -23 115 0 97 2 106 20 111 37 10 20 21
-29 20 l-49 -2 -33 -80 c-18 -44 -35 -83 -39 -87 -3 -5 -25 31 -49 80 l-43 87
-49 2 c-27 0 -49 -3 -49 -8z"/>
<path d="M1280 969 c0 -4 9 -9 20 -12 18 -5 20 -14 20 -100 0 -104 -5 -127
-26 -127 -8 0 -14 -3 -14 -7 0 -5 28 -7 62 -6 78 2 78 2 51 13 -20 8 -23 17
-23 60 l0 50 55 0 55 0 0 -50 c0 -43 -3 -52 -22 -60 -27 -10 -25 -11 52 -12
34 0 64 2 67 6 4 3 -3 6 -15 6 -21 0 -22 4 -22 115 0 108 1 115 20 115 11 0
20 4 20 8 0 4 -31 8 -70 8 -38 1 -67 -3 -64 -7 3 -5 12 -9 20 -9 10 0 14 -13
14 -50 l0 -50 -55 0 -55 0 0 46 c0 37 4 47 20 51 40 11 18 20 -45 20 -36 0
-65 -4 -65 -8z"/>
<path d="M922 911 c-12 -17 -29 -31 -37 -31 -8 0 -15 -5 -15 -11 0 -6 7 -9 15
-6 11 5 15 -7 17 -61 3 -61 5 -68 30 -80 20 -9 32 -10 52 -1 14 7 26 16 26 21
0 5 -9 4 -20 -2 -32 -17 -40 -4 -40 66 0 62 1 64 25 64 14 0 25 5 25 11 0 7
-10 9 -24 7 -22 -4 -25 -1 -28 24 l-3 30 -23 -31z"/>
<path d="M1081 916 c-8 -14 -25 -29 -38 -32 -13 -4 -23 -10 -23 -16 0 -5 10
-6 21 -3 20 7 21 5 15 -38 -9 -60 1 -96 30 -107 27 -10 74 3 74 20 0 7 -6 8
-17 2 -34 -17 -43 -3 -43 64 l0 64 30 0 c17 0 30 5 30 11 0 7 -12 10 -30 7
-26 -4 -29 -1 -32 26 l-3 30 -14 -28z"/>
<path d="M705 876 c-12 -8 -16 -19 -12 -30 9 -22 29 -16 42 12 12 28 39 24 43
-5 2 -16 -7 -27 -40 -45 -32 -17 -44 -30 -46 -50 -4 -35 24 -52 59 -34 19 9
26 9 34 0 11 -14 78 -7 69 7 -3 5 -9 7 -13 4 -12 -7 -22 52 -15 81 10 40 -19
74 -64 74 -21 0 -47 -6 -57 -14z m66 -129 c-14 -14 -41 -1 -41 21 0 10 10 24
23 29 19 9 22 7 25 -15 2 -13 -1 -29 -7 -35z"/>
<path d="M1622 874 c-19 -13 -21 -18 -10 -31 11 -13 15 -12 34 12 24 30 44 26
44 -8 0 -17 -11 -28 -42 -42 -33 -15 -44 -26 -46 -47 -4 -36 30 -56 61 -35 17
11 25 12 34 2 6 -7 25 -10 43 -7 26 4 29 7 16 14 -12 7 -16 24 -16 68 0 40 -5
64 -16 74 -20 21 -73 20 -102 0z m64 -120 c-7 -19 -35 -18 -43 3 -4 10 2 23
18 36 l24 19 3 -22 c2 -12 1 -28 -2 -36z"/>
<path d="M1795 870 c15 -16 17 -30 12 -77 -3 -32 -11 -59 -17 -61 -25 -9 -6
-17 35 -16 42 1 80 14 42 14 -14 0 -17 10 -17 49 0 56 26 99 53 88 25 -9 24
-122 0 -136 -20 -12 -18 -13 37 -13 55 0 57 1 38 13 -14 8 -18 24 -18 72 0 36
-5 68 -12 75 -17 17 -49 15 -76 -4 -20 -14 -22 -14 -22 0 0 12 -10 16 -37 16
-35 0 -36 0 -18 -20z"/>
<path d="M2220 879 c0 -5 5 -9 10 -9 6 0 10 -26 10 -58 0 -33 6 -66 13 -76 15
-21 62 -25 80 -7 9 9 6 11 -13 9 -24 -3 -25 -1 -28 74 l-3 76 -34 0 c-19 0
-35 -4 -35 -9z"/>
<path d="M2330 880 c0 -5 5 -10 11 -10 7 0 10 -23 9 -62 -3 -91 -4 -88 38 -87
20 0 31 3 25 6 -9 3 -13 30 -13 84 l0 79 -35 0 c-19 0 -35 -4 -35 -10z"/>
<path d="M2430 880 c0 -5 7 -10 15 -10 12 0 15 -14 15 -70 0 -59 -3 -70 -17
-70 -9 0 -13 -3 -10 -6 4 -4 27 -7 52 -7 25 0 48 3 52 7 3 3 -1 6 -10 6 -16 0
-21 33 -20 143 0 13 -9 17 -39 17 -21 0 -38 -4 -38 -10z"/>
<path d="M2521 877 c-16 -16 -13 -32 3 -18 11 10 16 8 24 -5 11 -20 42 -12 42
10 0 37 31 -2 64 -80 31 -71 35 -88 25 -107 -24 -46 -31 -50 -49 -26 -19 24
-40 18 -40 -11 0 -23 33 -35 60 -20 24 13 47 57 85 163 16 44 34 81 42 84 26
10 12 21 -29 21 -39 1 -41 -1 -24 -13 17 -13 18 -18 6 -60 -7 -25 -16 -45 -19
-45 -4 0 -14 21 -24 46 -16 43 -16 48 -1 59 13 9 -1 11 -69 12 -50 1 -89 -3
-96 -10z"/>
</g>
</svg>
